# xmcd
#
# Track frame offsets: 
#        150
#        14071
#        29305
#        44129
#        55853
#        71182
#        88125
#        103377
#        118360
#        132924
#        149066
#        164503
#        179469
#        194274
#        209945
#
# Disc length: 3011 seconds
#
# Revision: 0
# Processed by: cddbd v1.5.2PL0 Copyright (c) Steve Scherf et al.
# Submitted via: ExactAudioCopyFreeDBPlugin 1.0
#
DISCID=030bc10f
DTITLE=Various Artist - Country Mix USA
DYEAR=2012
DGENRE=Country
TTITLE0=Bridgette Tatum - Hillbilly Rockstar
TTITLE1=David Adam Byrnes - Sweet Distraction
TTITLE2=Katie Knight - I Must Be Out Of Your Mind
TTITLE3=Sammy Kershaw - That Train
TTITLE4=Ann Claire - Better Girl
TTITLE5=Marlee Scott - Train Wreck
TTITLE6=David St. Romain - That's Love
TTITLE7=Craig Morgan - The Whole World Needs A Kitchen
TTITLE8=Tyler Reeve - Can't Stop Drinking
TTITLE9=John Carter - All Kinds Of Beautiful
TTITLE10=Sonia Leigh - My Name Is Money
TTITLE11=Jimmie Van Zant - Wildest Bunch
TTITLE12=Due West - Bible And The Belt
TTITLE13=After The Reign - Burning Down The Farm
TTITLE14=Jason Blaine - On A Night Like This
EXTD=
EXTT0=
EXTT1=
EXTT2=
EXTT3=
EXTT4=
EXTT5=
EXTT6=
EXTT7=
EXTT8=
EXTT9=
EXTT10=
EXTT11=
EXTT12=
EXTT13=
EXTT14=
PLAYORDER=
